# xmcd
#
# Track frame offsets:
#	150
#	75544
#	127348
#	171597
#	247816
#
# Disc length: 3888 seconds
#
# Revision: 1
# Processed by: cddbd v1.5.2PL0 Copyright (c) Steve Scherf et al.
# Submitted via: audiograbber 1.81.02
#
DISCID=3e0f2e05
DTITLE=Daniel A. D'adamo - Voices
DYEAR=1999
DGENRE=
TTITLE0=Voices
TTITLE1=Die runde Zahl
TTITLE2=Coeli et terrae
TTITLE3=D'ombra
TTITLE4=D'ombra II
EXTD=
EXTT0=
EXTT1=
EXTT2=
EXTT3=
EXTT4=
PLAYORDER=
